<?xml version="1.0" standalone="no"?>
<!DOCTYPE svg PUBLIC "-//W3C//DTD SVG 20010904//EN"
 "http://www.w3.org/TR/2001/REC-SVG-20010904/DTD/svg10.dtd">
<svg version="1.0" xmlns="http://www.w3.org/2000/svg"
 width="260.000000pt" height="260.000000pt" viewBox="0 0 260.000000 260.000000"
 preserveAspectRatio="xMidYMid meet">
<metadata>
Created by potrace 1.11, written by Peter Selinger 2001-2013
</metadata>
<g transform="translate(0.000000,260.000000) scale(0.100000,-0.100000)"
fill="#000000" stroke="none">
<path d="M0 1300 l0 -1300 1300 0 1300 0 0 1300 0 1300 -1300 0 -1300 0 0
-1300z m1653 1144 c64 -20 117 -39 117 -43 0 -3 -33 -107 -74 -229 l-75 -223
47 8 c78 13 252 7 322 -11 87 -22 174 -64 237 -114 88 -71 178 -216 198 -322
l6 -35 -148 -38 c-81 -21 -151 -37 -154 -37 -3 0 -11 19 -18 43 -17 57 -74
139 -119 171 -20 14 -66 33 -102 42 -165 42 -321 -30 -396 -182 -27 -55 -29
-67 -29 -174 0 -97 3 -122 22 -162 31 -67 95 -132 156 -159 71 -31 193 -37
271 -15 93 27 179 122 200 222 l7 31 150 -37 c83 -21 153 -41 157 -44 9 -10
-27 -115 -65 -188 -47 -91 -149 -187 -245 -233 -109 -52 -198 -68 -348 -62
-192 7 -322 56 -442 166 -58 53 -68 59 -68 39 0 -31 -246 -748 -256 -748 -14
0 -265 78 -271 84 -3 2 28 102 67 223 39 120 72 222 73 226 1 5 -52 8 -118 7
-268 -2 -462 97 -550 281 -19 41 -35 81 -35 90 0 13 34 29 142 65 78 26 143
43 145 38 13 -38 69 -118 98 -140 39 -29 125 -54 192 -54 120 0 203 47 203
116 0 90 -55 118 -295 149 -170 23 -284 70 -353 149 -42 49 -57 80 -72 151
-26 126 16 262 106 345 130 120 373 160 572 94 127 -42 212 -111 269 -219 20
-38 34 -54 37 -45 3 8 64 195 137 415 72 220 133 403 136 407 2 4 14 3 26 -2
12 -5 75 -26 140 -46z"/>
<path d="M593 1663 c-17 -9 -39 -31 -49 -49 -17 -31 -17 -35 -1 -68 26 -56 67
-70 288 -100 108 -15 176 -34 241 -67 20 -10 39 -16 41 -11 8 13 87 259 87
270 0 6 -61 -14 -136 -44 -75 -30 -137 -54 -138 -52 -56 99 -122 138 -230 137
-43 0 -83 -6 -103 -16z"/>
</g>
</svg>
